<svg width="117" height="47" viewBox="0 0 117 47" fill="none" xmlns="http://www.w3.org/2000/svg">
<path d="M0.0214393 28.36V2.68C0.0214393 1.976 0.277439 1.368 0.789439 0.855999C1.33344 0.311998 1.94144 0.0399981 2.61344 0.0399981H22.7254C23.3974 0.0399981 24.0054 0.295999 24.5494 0.808C25.0934 1.32 25.3654 1.944 25.3654 2.68V9.016C25.3654 11.16 25.2054 12.392 24.8854 12.712C24.5654 13.032 23.3334 13.192 21.1894 13.192C19.1414 13.192 17.9574 13.048 17.6374 12.76C17.3494 12.44 17.2054 11.224 17.2054 9.112V8.056C17.2054 7.512 17.2054 7.08 17.2054 6.76C17.2054 6.408 17.2054 6.136 17.2054 5.944C17.2054 4.92 17.0934 4.296 16.8694 4.072C16.6454 3.848 16.0054 3.736 14.9494 3.736H6.50144C5.38144 3.736 4.69344 3.848 4.43744 4.072C4.21344 4.264 4.10144 4.872 4.10144 5.896V22.984C4.10144 23.528 4.10144 23.976 4.10144 24.328C4.10144 24.648 4.10144 24.904 4.10144 25.096C4.10144 26.12 4.21344 26.744 4.43744 26.968C4.66144 27.192 5.30144 27.304 6.35744 27.304H19.0294C20.0534 27.304 20.6934 27.208 20.9494 27.016C21.2054 26.824 21.3334 26.28 21.3334 25.384C21.3334 25.064 21.3174 24.712 21.2854 24.328C21.2854 23.912 21.2854 23.464 21.2854 22.984V19.192C21.2854 18.584 21.4774 18.12 21.8614 17.8C22.2774 17.448 22.7734 17.272 23.3494 17.272C23.9254 17.272 24.4054 17.432 24.7894 17.752C25.1734 18.072 25.3654 18.536 25.3654 19.144V28.36C25.3654 30.12 24.4854 31 22.7254 31H2.61344C0.885439 31 0.0214393 30.12 0.0214393 28.36ZM37.7633 3.736C36.6433 3.736 35.9553 3.848 35.6993 4.072C35.4753 4.264 35.3633 4.872 35.3633 5.896V22.984C35.3633 23.528 35.3633 23.976 35.3633 24.328C35.3633 24.648 35.3633 24.904 35.3633 25.096C35.3633 26.12 35.4753 26.744 35.6993 26.968C35.9233 27.192 36.5633 27.304 37.6193 27.304H55.7633C56.7873 27.304 57.4273 27.208 57.6833 27.016C57.9393 26.824 58.0673 26.28 58.0673 25.384C58.0673 25.064 58.0513 24.712 58.0193 24.328C58.0193 23.912 58.0193 23.464 58.0193 22.984V8.056C58.0193 7.512 58.0193 7.08 58.0193 6.76C58.0193 6.408 58.0193 6.136 58.0193 5.944C58.0193 4.92 57.9073 4.296 57.6833 4.072C57.4593 3.848 56.8193 3.736 55.7633 3.736H37.7633ZM62.0993 2.68V28.36C62.0993 30.12 61.2193 31 59.4593 31H33.8753C32.1473 31 31.2833 30.12 31.2833 28.36V2.68C31.2833 1.976 31.5393 1.368 32.0513 0.855999C32.5953 0.311998 33.2033 0.0399981 33.8753 0.0399981H59.4593C60.1313 0.0399981 60.7393 0.295999 61.2833 0.808C61.8273 1.32 62.0993 1.944 62.0993 2.68ZM89.3404 22.984V8.056C89.3404 7.512 89.3404 7.08 89.3404 6.76C89.3404 6.408 89.3404 6.136 89.3404 5.944C89.3404 4.952 89.2284 4.344 89.0044 4.12C88.7804 3.896 88.1404 3.784 87.0844 3.784H76.1884C75.7404 3.784 75.3564 3.784 75.0364 3.784C74.7484 3.784 74.5244 3.784 74.3644 3.784C73.3404 3.784 72.7004 3.896 72.4444 4.12C72.2204 4.312 72.1084 4.904 72.1084 5.896V10.84C72.1084 12.408 72.1564 13.4 72.2524 13.816C72.3804 14.232 72.8124 14.824 73.5484 15.592L74.6524 16.696C75.3884 17.4 75.8204 18.008 75.9484 18.52C76.1084 19 76.1884 19.992 76.1884 21.496V22.984C76.1884 23.464 76.1884 23.88 76.1884 24.232C76.1884 24.552 76.1884 24.792 76.1884 24.952C76.1884 26.072 76.2844 26.744 76.4764 26.968C76.6684 27.192 77.2924 27.304 78.3484 27.304H87.0844C88.1084 27.304 88.7484 27.208 89.0044 27.016C89.2604 26.824 89.3884 26.28 89.3884 25.384C89.3884 25.064 89.3724 24.712 89.3404 24.328C89.3404 23.912 89.3404 23.464 89.3404 22.984ZM90.7804 0.0399981C91.4524 0.0399981 92.0604 0.295999 92.6044 0.808C93.1484 1.32 93.4204 1.944 93.4204 2.68V28.36C93.4204 29.224 93.1804 29.88 92.7004 30.328C92.2204 30.776 91.5804 31 90.7804 31H70.6684C68.9404 31 68.0764 30.12 68.0764 28.36V2.68C68.0764 1.976 68.3324 1.368 68.8444 0.855999C69.3884 0.311998 69.9964 0.0399981 70.6684 0.0399981H90.7804ZM99.4321 28.36V2.68C99.4321 1.976 99.6881 1.368 100.2 0.855999C100.744 0.311998 101.352 0.0399981 102.024 0.0399981H114.072C114.744 0.0399981 115.24 0.231998 115.56 0.615999C115.912 0.967999 116.088 1.4 116.088 1.912C116.088 2.456 115.928 2.904 115.608 3.256C115.288 3.608 114.808 3.784 114.168 3.784H107.544C107.032 3.784 106.6 3.784 106.248 3.784C105.928 3.784 105.688 3.784 105.528 3.784C104.536 3.784 103.944 3.896 103.752 4.12C103.56 4.344 103.464 4.984 103.464 6.04V9.304C103.464 9.656 103.464 10.008 103.464 10.36C103.464 10.712 103.464 10.984 103.464 11.176C103.464 12.2 103.56 12.824 103.752 13.048C103.944 13.272 104.52 13.384 105.48 13.384H114.216C114.792 13.384 115.24 13.576 115.56 13.96C115.912 14.312 116.088 14.728 116.088 15.208C116.088 15.72 115.912 16.168 115.56 16.552C115.24 16.904 114.776 17.08 114.168 17.08H111.624C111.112 17.08 110.68 17.08 110.328 17.08C110.008 17.08 109.768 17.08 109.608 17.08C108.616 17.08 108.024 17.192 107.832 17.416C107.64 17.64 107.544 18.28 107.544 19.336V23.224C107.544 23.576 107.544 23.928 107.544 24.28C107.544 24.632 107.544 24.904 107.544 25.096C107.544 26.12 107.64 26.744 107.832 26.968C108.024 27.192 108.6 27.304 109.56 27.304H114.216C114.792 27.304 115.24 27.496 115.56 27.88C115.912 28.232 116.088 28.664 116.088 29.176C116.088 29.688 115.928 30.12 115.608 30.472C115.288 30.824 114.808 31 114.168 31H102.024C100.296 31 99.4321 30.12 99.4321 28.36ZM19.6388 46L15.9188 37.6H16.8788L20.3588 45.508H19.8308L23.3348 37.6H24.2348L20.5148 46H19.6388ZM27.4695 46.06C26.8135 46.06 26.2375 45.924 25.7415 45.652C25.2455 45.372 24.8575 44.992 24.5775 44.512C24.2975 44.024 24.1575 43.468 24.1575 42.844C24.1575 42.22 24.2895 41.668 24.5535 41.188C24.8255 40.708 25.1935 40.332 25.6575 40.06C26.1295 39.78 26.6575 39.64 27.2415 39.64C27.8335 39.64 28.3575 39.776 28.8135 40.048C29.2775 40.312 29.6415 40.688 29.9055 41.176C30.1695 41.656 30.3015 42.212 30.3015 42.844C30.3015 42.884 30.2975 42.928 30.2895 42.976C30.2895 43.016 30.2895 43.06 30.2895 43.108H24.8055V42.472H29.8335L29.4975 42.724C29.4975 42.268 29.3975 41.864 29.1975 41.512C29.0055 41.152 28.7415 40.872 28.4055 40.672C28.0695 40.472 27.6815 40.372 27.2415 40.372C26.8095 40.372 26.4215 40.472 26.0775 40.672C25.7335 40.872 25.4655 41.152 25.2735 41.512C25.0815 41.872 24.9855 42.284 24.9855 42.748V42.88C24.9855 43.36 25.0895 43.784 25.2975 44.152C25.5135 44.512 25.8095 44.796 26.1855 45.004C26.5695 45.204 27.0055 45.304 27.4935 45.304C27.8775 45.304 28.2335 45.236 28.5615 45.1C28.8975 44.964 29.1855 44.756 29.4255 44.476L29.9055 45.028C29.6255 45.364 29.2735 45.62 28.8495 45.796C28.4335 45.972 27.9735 46.06 27.4695 46.06ZM35.2517 39.64C35.7637 39.64 36.2117 39.74 36.5957 39.94C36.9877 40.132 37.2917 40.428 37.5077 40.828C37.7317 41.228 37.8437 41.732 37.8437 42.34V46H36.9917V42.424C36.9917 41.76 36.8237 41.26 36.4877 40.924C36.1597 40.58 35.6957 40.408 35.0957 40.408C34.6477 40.408 34.2557 40.5 33.9197 40.684C33.5917 40.86 33.3357 41.12 33.1517 41.464C32.9757 41.8 32.8877 42.208 32.8877 42.688V46H32.0357V39.7H32.8517V41.428L32.7197 41.104C32.9197 40.648 33.2397 40.292 33.6797 40.036C34.1197 39.772 34.6437 39.64 35.2517 39.64ZM40.145 46V39.7H40.997V46H40.145ZM40.577 38.308C40.401 38.308 40.253 38.248 40.133 38.128C40.013 38.008 39.953 37.864 39.953 37.696C39.953 37.528 40.013 37.388 40.133 37.276C40.253 37.156 40.401 37.096 40.577 37.096C40.753 37.096 40.901 37.152 41.021 37.264C41.141 37.376 41.201 37.516 41.201 37.684C41.201 37.86 41.141 38.008 41.021 38.128C40.909 38.248 40.761 38.308 40.577 38.308ZM43.4517 46.06C43.2757 46.06 43.1237 45.996 42.9957 45.868C42.8757 45.74 42.8157 45.584 42.8157 45.4C42.8157 45.208 42.8757 45.052 42.9957 44.932C43.1237 44.812 43.2757 44.752 43.4517 44.752C43.6277 44.752 43.7757 44.812 43.8957 44.932C44.0237 45.052 44.0877 45.208 44.0877 45.4C44.0877 45.584 44.0237 45.74 43.8957 45.868C43.7757 45.996 43.6277 46.06 43.4517 46.06ZM51.6193 46L47.8993 37.6H48.8593L52.3393 45.508H51.8113L55.3153 37.6H56.2153L52.4953 46H51.6193ZM57.2193 46V39.7H58.0713V46H57.2193ZM57.6513 38.308C57.4753 38.308 57.3273 38.248 57.2073 38.128C57.0873 38.008 57.0273 37.864 57.0273 37.696C57.0273 37.528 57.0873 37.388 57.2073 37.276C57.3273 37.156 57.4753 37.096 57.6513 37.096C57.8273 37.096 57.9753 37.152 58.0953 37.264C58.2153 37.376 58.2753 37.516 58.2753 37.684C58.2753 37.86 58.2153 38.008 58.0953 38.128C57.9833 38.248 57.8353 38.308 57.6513 38.308ZM62.9499 46.06C62.3499 46.06 61.8099 45.924 61.3299 45.652C60.8579 45.38 60.4859 45.004 60.2139 44.524C59.9419 44.036 59.8059 43.476 59.8059 42.844C59.8059 42.204 59.9419 41.644 60.2139 41.164C60.4859 40.684 60.8579 40.312 61.3299 40.048C61.8099 39.776 62.3499 39.64 62.9499 39.64C63.5019 39.64 63.9939 39.764 64.4259 40.012C64.8659 40.26 65.2139 40.624 65.4699 41.104C65.7339 41.576 65.8659 42.156 65.8659 42.844C65.8659 43.524 65.7379 44.104 65.4819 44.584C65.2259 45.064 64.8779 45.432 64.4379 45.688C64.0059 45.936 63.5099 46.06 62.9499 46.06ZM63.0099 45.304C63.4579 45.304 63.8579 45.204 64.2099 45.004C64.5699 44.796 64.8499 44.508 65.0499 44.14C65.2579 43.764 65.3619 43.332 65.3619 42.844C65.3619 42.348 65.2579 41.916 65.0499 41.548C64.8499 41.18 64.5699 40.896 64.2099 40.696C63.8579 40.488 63.4579 40.384 63.0099 40.384C62.5699 40.384 62.1739 40.488 61.8219 40.696C61.4699 40.896 61.1899 41.18 60.9819 41.548C60.7739 41.916 60.6699 42.348 60.6699 42.844C60.6699 43.332 60.7739 43.764 60.9819 44.14C61.1899 44.508 61.4699 44.796 61.8219 45.004C62.1739 45.204 62.5699 45.304 63.0099 45.304ZM65.3859 46V44.104L65.4699 42.832L65.3499 41.56V37.096H66.2019V46H65.3859ZM68.5747 46V39.7H69.4267V46H68.5747ZM69.0067 38.308C68.8307 38.308 68.6827 38.248 68.5627 38.128C68.4427 38.008 68.3827 37.864 68.3827 37.696C68.3827 37.528 68.4427 37.388 68.5627 37.276C68.6827 37.156 68.8307 37.096 69.0067 37.096C69.1827 37.096 69.3307 37.152 69.4507 37.264C69.5707 37.376 69.6307 37.516 69.6307 37.684C69.6307 37.86 69.5707 38.008 69.4507 38.128C69.3387 38.248 69.1907 38.308 69.0067 38.308ZM71.8814 46.06C71.7054 46.06 71.5534 45.996 71.4254 45.868C71.3054 45.74 71.2454 45.584 71.2454 45.4C71.2454 45.208 71.3054 45.052 71.4254 44.932C71.5534 44.812 71.7054 44.752 71.8814 44.752C72.0574 44.752 72.2054 44.812 72.3254 44.932C72.4534 45.052 72.5174 45.208 72.5174 45.4C72.5174 45.584 72.4534 45.74 72.3254 45.868C72.2054 45.996 72.0574 46.06 71.8814 46.06ZM80.049 46L76.329 37.6H77.289L80.769 45.508H80.241L83.745 37.6H84.645L80.925 46H80.049ZM85.6489 46V39.7H86.5009V46H85.6489ZM86.0809 38.308C85.9049 38.308 85.7569 38.248 85.6369 38.128C85.5169 38.008 85.4569 37.864 85.4569 37.696C85.4569 37.528 85.5169 37.388 85.6369 37.276C85.7569 37.156 85.9049 37.096 86.0809 37.096C86.2569 37.096 86.4049 37.152 86.5249 37.264C86.6449 37.376 86.7049 37.516 86.7049 37.684C86.7049 37.86 86.6449 38.008 86.5249 38.128C86.4129 38.248 86.2649 38.308 86.0809 38.308ZM91.4876 46.06C90.8636 46.06 90.3036 45.924 89.8076 45.652C89.3196 45.372 88.9356 44.992 88.6556 44.512C88.3756 44.024 88.2356 43.468 88.2356 42.844C88.2356 42.212 88.3756 41.656 88.6556 41.176C88.9356 40.696 89.3196 40.32 89.8076 40.048C90.3036 39.776 90.8636 39.64 91.4876 39.64C92.0236 39.64 92.5076 39.744 92.9396 39.952C93.3716 40.16 93.7116 40.472 93.9596 40.888L93.3236 41.32C93.1076 41 92.8396 40.764 92.5196 40.612C92.1996 40.46 91.8516 40.384 91.4756 40.384C91.0276 40.384 90.6236 40.488 90.2636 40.696C89.9036 40.896 89.6196 41.18 89.4116 41.548C89.2036 41.916 89.0996 42.348 89.0996 42.844C89.0996 43.34 89.2036 43.772 89.4116 44.14C89.6196 44.508 89.9036 44.796 90.2636 45.004C90.6236 45.204 91.0276 45.304 91.4756 45.304C91.8516 45.304 92.1996 45.228 92.5196 45.076C92.8396 44.924 93.1076 44.692 93.3236 44.38L93.9596 44.812C93.7116 45.22 93.3716 45.532 92.9396 45.748C92.5076 45.956 92.0236 46.06 91.4876 46.06ZM95.5396 46V39.7H96.3916V46H95.5396ZM95.9716 38.308C95.7956 38.308 95.6476 38.248 95.5276 38.128C95.4076 38.008 95.3476 37.864 95.3476 37.696C95.3476 37.528 95.4076 37.388 95.5276 37.276C95.6476 37.156 95.7956 37.096 95.9716 37.096C96.1476 37.096 96.2956 37.152 96.4156 37.264C96.5356 37.376 96.5956 37.516 96.5956 37.684C96.5956 37.86 96.5356 38.008 96.4156 38.128C96.3036 38.248 96.1556 38.308 95.9716 38.308ZM98.8462 46.06C98.6702 46.06 98.5182 45.996 98.3902 45.868C98.2702 45.74 98.2102 45.584 98.2102 45.4C98.2102 45.208 98.2702 45.052 98.3902 44.932C98.5182 44.812 98.6702 44.752 98.8462 44.752C99.0222 44.752 99.1702 44.812 99.2902 44.932C99.4182 45.052 99.4822 45.208 99.4822 45.4C99.4822 45.584 99.4182 45.74 99.2902 45.868C99.1702 45.996 99.0222 46.06 98.8462 46.06Z" fill="black"/>
</svg>
